<?xml version="1.0" encoding="UTF-8"?>
<svg xmlns="http://www.w3.org/2000/svg" xmlns:bx="https://boxy-svg.com" version="1.1" viewBox="0 0 1024 1024">
  <!-- Generator: Adobe Illustrator 29.8.2, SVG Export Plug-In . SVG Version: 2.1.1 Build 3)  -->
  <g id="Ebene_1" display="none">
    <g>
      <path d="M0,285v454c0,150,112,285,285,285h454c173,0,285-135,285-285v-454C1024,135,912,0,739,0h-454C112,0,0,135,0,285Z" fill="none" stroke="#909090" stroke-width="3"/>
      <path d="M50,285v454c0,123,90,235,235,235h454c145,0,235-112,235-235v-454c0-123-90-235-235-235h-454c-145,0-235,112-235,235Z" fill="none" stroke="#909090" stroke-width="3"/>
      <path d="M100,300v424c0,115,70,200,200,200h424c130,0,200-85,200-200v-424c0-115-70-200-200-200h-424c-130,0-200,85-200,200Z" fill="none" stroke="#e42320" stroke-width="3"/>
      <path d="M154,154h716v716H154V154ZM154,154l716,716L154,154ZM100,512h824H100ZM100,354.6h824H100ZM924,669.4H100h824ZM669.4,924V100v824ZM354.6,100v824V100ZM512,924V100v824ZM154,870L870,154,154,870Z" fill="none" stroke="#e42320"/>
      <circle cx="512" cy="512" r="157.4" fill="none"/>
      <circle cx="512" cy="512" r="222.6" fill="none"/>
      <circle cx="512" cy="512" r="358" fill="none"/>
    </g>
    <g>
      <path d="M380.3,618.3c2.2-.4,5.7-3,8-4l91.6-119.9-24.1-19.1,136.9-38.3,10.1,145c-3.3,3.2-25.8-19.3-31.9-15.8l-112.1,150.8H155.8v-261.8l96.7,99.7v63.4h127.9,0ZM380.3,648.6h-158.1v-81.6l-36.2-37.3v157.1h256.8l124.8-165.3-3-46.2-43.8,12.6-108.2,146.6c-5.4,5.7-24.5,13-32.3,14h0Z" fill="#fff"/>
      <path d="M252.4,478.3c15.6,13.9,26.1,34.3,46.9,41.7,27.6,9.8,49.6-1.4,67.8-21.6,46.3-51.5,99.5-148.4,160.4-178,60.2-29.2,132.8-23,190,9.9,3,4.4-14.2,19.7-16,25.2l-2.7.7c-60.9-39.3-153.4-31.6-200.7,25.4-3.8,4.6-9.4,11.1-10.1,17.1h43.3c1.3,0,16-13.1,20.6-15.7,37.7-21.7,85.3-19.9,123.4-.4l-16.2,23.2c-3.6,2.3-20.3-5.1-26.1-6.2-36.2-7.4-65.5,4.7-91.8,29.3l-81-.7-81,102.4c-28.2,23.9-68.1,29.9-101.4,12.7-20.8-10.7-46.5-45.3-63.7-63.1-19.1-19.8-39.3-38.6-58.4-58.4v-115.8h96.7v172.2h0ZM222.2,334.3h-36.2v75.5l36.2,35.3v-110.8Z" fill="#fff"/>
      <path d="M709.7,660.6l-21.4-27.8c-45.2,25.9-93.3,28.5-139.7,3.7l16.3-26.1c44.3,23.9,95.4,13.5,129.7-22.2l57.3,75.5c-62,62.5-169.2,75.8-241.5,23.9l17-22.4c57.1,34.2,127,32.2,182.3-4.6h0Z" fill="#fff"/>
      <path d="M809.4,282c100.4,105.5,105,282.3,3.7,388.5-6-2-21.8-14.2-20.6-20.4.6-2.8,25.1-33.7,29.5-41.2,56.6-96.4,43.6-223.1-33.7-304l21-22.9h0Z" fill="#fff"/>
      <path d="M763,328.3c76.9,79.1,79.6,215,3.7,295.9-1.6.3-21.6-16-20.5-20.6,52.3-62.8,61.2-152.2,18.6-222.8-3.2-5.4-20.3-26.1-20.8-27.7-1.3-4.9,14.7-20.4,18.9-24.7Z" fill="#fff"/>
      <path d="M717,376.8c5.4-.9,22.6,29,25.3,34.7,25.5,54.3,18.8,121.6-21.7,166.5l-22.5-19c39.2-48.3,38.7-113.2-.2-161.5l19.1-20.6h0Z" fill="#fff"/>
      <path d="M670.5,421c3.7-.8,13.7,18.7,15.4,22.7,11.8,28.7,6.9,66.5-13.7,89.9l-22.6-21c17-20.9,17.1-49.7,0-70.5l20.9-21h0Z" fill="#fff"/>
    </g>
  </g>
  <g id="Ebene_2">
    <path d="M100,300v424c0,115,70,200,200,200h424c130,0,200-85,200-200v-424c0-115-70-200-200-200h-424c-130,0-200,85-200,200Z" fill="#1e3a8a"/>
    <path d="M50,285v454c0,123,90,235,235,235h454c145,0,235-112,235-235v-454c0-123-90-235-235-235h-454c-145,0-235,112-235,235Z" display="none" fill="#1e3a8a"/>
    <path d="M0,285v454c0,150,112,285,285,285h454c173,0,285-135,285-285v-454C1024,135,912,0,739,0h-454C112,0,0,135,0,285Z" fill="#1e3a8a"/>
    <rect x="-4" y="-5" width="1033.1" height="1034.5" fill="#1e3a8a" stroke="#000" stroke-miterlimit="10"/>
  </g>
  <g id="Ebene_3">
    <g>
      <path d="M348.3,648.4c2.5-.5,6.6-3.5,9.3-4.7l106.3-139.2-27.9-22.1,159-44.4,11.7,168.4c-3.8,3.8-30-22.4-37-18.3l-130.1,175H87.6v-304l112.3,115.8v73.6h148.5,0ZM348.3,683.5h-183.5v-94.7l-42.1-43.3v182.4h298.1l144.9-191.9-3.5-53.7-50.8,14.7-125.6,170.1c-6.3,6.6-28.4,15.1-37.5,16.3h0Z" fill="#fff"/>
      <path d="M199.8,485.9c18.1,16.1,30.3,39.8,54.5,48.4,32.1,11.4,57.6-1.6,78.8-25.1,53.7-59.8,115.5-172.3,186.2-206.6,69.9-33.8,154.2-26.7,220.6,11.5,3.5,5.1-16.5,22.8-18.6,29.2l-3.2.8c-70.7-45.6-178-36.6-233,29.5-4.4,5.4-10.9,12.9-11.7,19.8h50.3c1.5,0,18.6-15.2,23.9-18.3,43.8-25.1,99-23.1,143.3-.4l-18.8,27c-4.1,2.6-23.5-5.9-30.2-7.2-42-8.5-76.1,5.5-106.6,34l-94-.8-94.1,118.9c-32.7,27.8-79,34.7-117.7,14.7-24.1-12.5-54-52.6-74-73.3-22.2-23-45.7-44.8-67.9-67.8v-134.4h112.3v199.9h0ZM164.8,318.8h-42.1v87.7l42.1,40.9v-128.6Z" fill="#fff"/>
      <path d="M730.6,697.5l-24.9-32.3c-52.5,30.1-108.4,33.1-162.1,4.3l18.9-30.2c51.4,27.8,110.7,15.7,150.6-25.8l66.5,87.6c-71.9,72.5-196.4,88-280.4,27.8l19.7-26c66.2,39.7,147.4,37.4,211.6-5.4h0Z" fill="#fff"/>
      <path d="M846.4,258c116.6,122.4,121.9,327.7,4.4,451-6.9-2.4-25.3-16.5-23.9-23.7.7-3.3,29.2-39.1,34.3-47.8,65.7-112,50.6-259-39.1-352.9l24.4-26.5h0Z" fill="#fff"/>
      <path d="M792.6,311.8c89.3,91.8,92.4,249.6,4.4,343.5-1.9.3-25.1-18.6-23.7-24,60.7-72.9,71.1-176.6,21.5-258.6-3.8-6.3-23.6-30.2-24.1-32.2-1.5-5.7,17.1-23.7,22-28.7Z" fill="#fff"/>
      <path d="M739.1,368c6.3-1.1,26.2,33.7,29.3,40.3,29.7,63.1,21.8,141.1-25.2,193.2l-26.1-22.1c45.5-56,44.9-131.4-.2-187.5l22.2-24h0Z" fill="#fff"/>
      <path d="M685.1,419.4c4.3-1,15.9,21.8,17.8,26.4,13.7,33.3,8,77.2-15.9,104.4l-26.2-24.4c19.7-24.2,19.8-57.7,0-81.9l24.3-24.4h0Z" fill="#fff"/>
    </g>
  </g>
</svg>